<svg width="80" height="80" viewBox="0 0 80 80" fill="none" xmlns="http://www.w3.org/2000/svg">
<rect width="80" height="80" rx="20" fill="#5458EA"/>
<path fill-rule="evenodd" clip-rule="evenodd" d="M33.5 29.5C33.5 25.9101 36.4101 23 40 23C43.5899 23 46.5 25.9101 46.5 29.5V32H33.5V29.5ZM30.5 32.1404V29.5C30.5 24.2533 34.7533 20 40 20C45.2467 20 49.5 24.2533 49.5 29.5V32.1404C53.2013 32.8425 56 36.0944 56 40V52C56 56.4183 52.4183 60 48 60H32C27.5817 60 24 56.4183 24 52V40C24 36.0944 26.7987 32.8425 30.5 32.1404ZM40 42.5C40.8284 42.5 41.5 43.1716 41.5 44V48C41.5 48.8284 40.8284 49.5 40 49.5C39.1716 49.5 38.5 48.8284 38.5 48V44C38.5 43.1716 39.1716 42.5 40 42.5Z" fill="white" fill-opacity="0.5"/>
</svg>
